<?xml version="1.0" encoding="utf-8"?>
<!-- Generator: Adobe Illustrator 22.0.0, SVG Export Plug-In . SVG Version: 6.00 Build 0)  -->
<svg version="1.1" id="Слой_1" xmlns="http://www.w3.org/2000/svg" xmlns:xlink="http://www.w3.org/1999/xlink" x="0px" y="0px"
	 viewBox="0 0 41 41" style="enable-background:new 0 0 41 41;" xml:space="preserve">
<style type="text/css">
	.st0{fill:#FF0A33;}
</style>
<path class="st0" d="M37.4,9.6h-4.9c0.8-1,1.2-2.3,1.2-3.6c0-3.3-2.7-6-6-6c-2,0-3.5,0.7-4.6,2.2c-1,1.3-1.7,3.1-2.6,5.3
	c-0.9-2.3-1.6-4.1-2.6-5.3C16.8,0.7,15.3,0,13.3,0c-3.3,0-6,2.7-6,6c0,1.4,0.4,2.6,1.2,3.6H3.6c-2,0-3.6,1.6-3.6,3.6v2.4
	c0,1.6,1,2.9,2.4,3.4v18.4C2.4,39.4,4,41,6,41h29c2,0,3.6-1.6,3.6-3.6V19c1.4-0.5,2.4-1.8,2.4-3.4v-2.4C41,11.2,39.4,9.6,37.4,9.6z
	 M22.7,8.5c1.8-4.7,2.5-6.1,5-6.1c2,0,3.6,1.6,3.6,3.6s-1.6,3.6-3.6,3.6h-5.4C22.4,9.2,22.6,8.9,22.7,8.5z M13.3,2.4
	c2.5,0,3.2,1.5,5,6.1c0.1,0.3,0.3,0.7,0.4,1.1h-5.4c-2,0-3.6-1.6-3.6-3.6S11.3,2.4,13.3,2.4z M15.7,38.6H6c-0.7,0-1.2-0.5-1.2-1.2
	V19.2h10.9V38.6z M15.7,16.8H3.6c-0.7,0-1.2-0.5-1.2-1.2v-2.4c0-0.7,0.5-1.2,1.2-1.2h12.1V16.8z M22.9,38.6h-4.8V12
	c0.3,0,3.4,0,4.8,0V38.6z M36.2,37.4c0,0.7-0.5,1.2-1.2,1.2h-9.7V19.2h10.9V37.4z M38.6,15.6c0,0.7-0.5,1.2-1.2,1.2H25.3V12h12.1
	c0.7,0,1.2,0.5,1.2,1.2V15.6z"/>
</svg>
