<?xml version="1.0" encoding="utf-8"?>
<!-- Generator: Adobe Illustrator 22.0.0, SVG Export Plug-In . SVG Version: 6.00 Build 0)  -->
<svg version="1.1" id="Слой_1" xmlns="http://www.w3.org/2000/svg" xmlns:xlink="http://www.w3.org/1999/xlink" x="0px" y="0px"
	 viewBox="0 0 36 36" style="enable-background:new 0 0 36 36;" xml:space="preserve">
<style type="text/css">
	.st0{fill:#43E97B;}
</style>
<path class="st0" d="M14.5,5.2C11.3,2,5.2,1.7,0.8,1.7C0.4,1.7,0,2,0,2.5C0,6.8,0.4,13,3.5,16.1C4.8,17.5,6.9,18,8.9,18
	c2.2,0,4.4-0.7,5.6-1.9C16.8,13.8,17.2,7.9,14.5,5.2z M13.3,15c-1.7,1.7-6.6,2-8.7,0c-2.5-2.5-3-7.7-3-11.7c4,0,9.1,0.5,11.7,3
	C15.4,8.4,15.1,13.2,13.3,15z"/>
<path class="st0" d="M35.2,4.9c-4.4,0-10.5,0.4-13.7,3.5c-2.8,2.8-2.3,8.6,0,11c1.2,1.2,3.4,1.9,5.6,1.9c2,0,4.1-0.6,5.4-1.9
	c3.1-3.1,3.5-9.3,3.5-13.7C36,5.3,35.6,4.9,35.2,4.9z M31.3,18.2c-2,2-6.9,1.7-8.7,0s-2-6.6,0-8.7c2.5-2.5,7.7-3,11.7-3
	C34.3,10.5,33.9,15.7,31.3,18.2z"/>
<path class="st0" d="M29.3,12c-0.2-0.4-0.7-0.6-1.2-0.4c-6.3,2.9-9.3,8.1-10.7,13.4c-1.7-11.2-6.7-14.7-8.9-16.1
	C8.3,8.7,8,8.5,7.9,8.4c-0.3-0.3-0.8-0.3-1.2,0c-0.3,0.3-0.3,0.8,0,1.2c0.2,0.2,0.4,0.4,0.8,0.6c2.4,1.6,8.8,6,8.8,23.3
	c0,0.5,0.4,0.8,0.8,0.8c0.5,0,0.8-0.4,0.8-0.8c0-7,1.9-16.2,10.8-20.4l0.1-0.1C29.4,12.8,29.5,12.4,29.3,12z"/>
</svg>
