<?xml version="1.0" encoding="utf-8"?>
<!-- Generator: Adobe Illustrator 22.0.0, SVG Export Plug-In . SVG Version: 6.00 Build 0)  -->
<svg version="1.1" id="Слой_1" xmlns="http://www.w3.org/2000/svg" xmlns:xlink="http://www.w3.org/1999/xlink" x="0px" y="0px"
	 viewBox="0 0 36 36" style="enable-background:new 0 0 36 36;" xml:space="preserve">
<style type="text/css">
	.st0{fill:#43E97B;}
</style>
<path class="st0" d="M28,22.4h1.1v1.1H28V22.4z"/>
<path class="st0" d="M6.9,22.4H8v1.1H6.9V22.4z"/>
<path class="st0" d="M11.9,22.9c0,3.4,2.7,6.1,6.1,6.1s6.1-2.7,6.1-6.1s-2.7-6.1-6.1-6.1S11.9,19.6,11.9,22.9z M23,22.9
	c0,2.8-2.3,5-5,5s-5-2.3-5-5s2.3-5,5-5S23,20.2,23,22.9z"/>
<path class="st0" d="M17.5,18.8v0.4c-0.9,0.2-1.6,1.1-1.6,2.1v0.3c0,1,0.7,1.8,1.6,1.9v2.1c-0.3-0.2-0.6-0.5-0.6-1h-1.1
	c0,1,0.7,1.9,1.6,2.1v0.4h1.1v-0.4c0.9-0.2,1.6-1.1,1.6-2.1v-0.3c0-1-0.7-1.8-1.6-1.9v-2.1c0.3,0.2,0.6,0.5,0.6,1h1.1
	c0-1-0.7-1.9-1.6-2.1v-0.4L17.5,18.8L17.5,18.8z M17.5,22.4c-0.3-0.1-0.6-0.4-0.6-0.8v-0.3c0-0.4,0.2-0.8,0.6-1V22.4z M19.1,24.3
	v0.3c0,0.4-0.2,0.8-0.6,1v-2C18.9,23.6,19.1,23.9,19.1,24.3z"/>
<path class="st0" d="M0,12.5v20.9h5.9v-1.1H1.1V13.6h33.9v18.8h-28v1.1H36V12.5H0z"/>
<path class="st0" d="M4.6,31.3h26.7l-0.1-0.6c-0.1-1.2,0.8-2.3,2.1-2.3h0.5v-11h-0.5c-1.1,0-2.1-0.9-2.1-2.1c0-0.1,0-0.1,0.1-0.8
	h-5.5v1.1h4.4c0.1,1.4,1.2,2.6,2.6,2.8v8.9c-1.4,0.2-2.5,1.4-2.6,2.8H5.8c-0.1-1.4-1.2-2.6-2.6-2.8v-8.9c1.4-0.2,2.5-1.4,2.6-2.8
	h19.1v-1.1H4.6l0.1,0.6c0.1,1.2-0.8,2.3-2.1,2.3H2.1v11h0.5c1.1,0,2.1,0.9,2.1,2.1C4.7,30.6,4.7,30.6,4.6,31.3z"/>
<path class="st0" d="M26.1,7.3l-0.2-0.5l-6.1,3.7l0.5,0.9l5.1-3.1c0.8,1.2,2.4,1.6,3.7,1.1l1.1,1.8l0.9-0.5L29.5,8l-0.5,0.3
	C28,8.9,26.6,8.4,26.1,7.3z"/>
<path class="st0" d="M33.6,10.6l-4.8-8l-13.1,7.8l0.5,0.9l12.2-7.3l4.3,7.1L33.6,10.6z"/>
</svg>
