<?xml version="1.0" encoding="utf-8"?>
<!-- Generator: Adobe Illustrator 22.0.0, SVG Export Plug-In . SVG Version: 6.00 Build 0)  -->
<svg version="1.1" id="Слой_1" xmlns="http://www.w3.org/2000/svg" xmlns:xlink="http://www.w3.org/1999/xlink" x="0px" y="0px"
	 viewBox="0 0 40 40" style="enable-background:new 0 0 40 40;" xml:space="preserve">
<style type="text/css">
	.st0{fill:#FF0A33;}
</style>
<path class="st0" d="M20,37.8c-0.6,0-1.1-0.2-1.5-0.6c-1.6-1.4-3.2-2.7-4.5-3.9l0,0c-4-3.4-7.5-6.4-9.9-9.3c-2.7-3.3-4-6.4-4-9.7
	c0-3.3,1.1-6.3,3.2-8.5c2.1-2.2,4.9-3.5,8-3.5c2.3,0,4.4,0.7,6.3,2.2C18.4,5.1,19.2,6,20,7c0.8-1,1.6-1.9,2.5-2.7
	c1.9-1.4,4-2.2,6.3-2.2c3.1,0,5.9,1.2,8,3.5c2,2.2,3.2,5.3,3.2,8.5c0,3.4-1.3,6.5-4,9.7c-2.4,2.9-5.9,5.9-9.9,9.3
	c-1.4,1.2-2.9,2.5-4.6,3.9C21.1,37.6,20.6,37.8,20,37.8z M11.2,4.5c-2.4,0-4.7,1-6.3,2.7c-1.6,1.8-2.6,4.3-2.6,7
	c0,2.8,1.1,5.4,3.4,8.3c2.3,2.8,5.7,5.7,9.6,9l0,0c1.4,1.2,2.9,2.5,4.6,3.9c1.6-1.4,3.2-2.8,4.6-3.9c3.9-3.4,7.4-6.3,9.6-9
	c2.4-2.9,3.4-5.4,3.4-8.3c0-2.7-0.9-5.2-2.6-7c-1.6-1.8-3.9-2.7-6.3-2.7c-1.8,0-3.4,0.6-4.9,1.7c-1.3,1-2.2,2.2-2.7,3.1
	c-0.3,0.5-0.7,0.7-1.3,0.7c-0.5,0-1-0.3-1.3-0.7c-0.5-0.9-1.4-2.1-2.7-3.1C14.6,5.1,13,4.5,11.2,4.5z"/>
</svg>
